<svg width="22" height="21" viewBox="0 0 22 21" fill="none" xmlns="http://www.w3.org/2000/svg">
<path d="M4.99417 21V6.83134H0.278238V21H4.99417ZM2.63682 4.89568C4.28134 4.89568 5.30499 3.8077 5.30499 2.44807C5.27435 1.05779 4.28141 0 2.66802 0C1.05489 0 0 1.05781 0 2.44807C0 3.80776 1.02339 4.89568 2.60603 4.89568H2.63682ZM7.60443 21H12.3204V13.0875C12.3204 12.6641 12.351 12.241 12.4755 11.9383C12.8165 11.0923 13.5924 10.216 14.8952 10.216C16.6017 10.216 17.2844 11.5153 17.2844 13.42V20.9999H22V12.8757C22 8.52366 19.6734 6.4987 16.5706 6.4987C14.0266 6.4987 12.9095 7.91876 12.289 8.88595H12.3205V6.83104H7.60453C7.66642 8.16055 7.60443 21 7.60443 21Z" fill="#CCCCCC"/>
</svg>
